<?xml version="1.0" standalone="no"?>
<!DOCTYPE svg PUBLIC "-//W3C//DTD SVG 20010904//EN"
 "http://www.w3.org/TR/2001/REC-SVG-20010904/DTD/svg10.dtd">
<svg version="1.0" xmlns="http://www.w3.org/2000/svg"
 width="695.000000pt" height="695.000000pt" viewBox="0 0 695.000000 695.000000"
 preserveAspectRatio="xMidYMid meet">
<metadata>
Created by potrace 1.11, written by Peter Selinger 2001-2013
</metadata>
<g transform="translate(0.000000,695.000000) scale(0.100000,-0.100000)"
fill="#000000" stroke="none">
<path d="M3085 5619 c-284 -26 -574 -159 -798 -369 -89 -83 -146 -154 -244
-300 -226 -338 -302 -638 -290 -1148 6 -254 23 -385 82 -610 255 -970 1031
-1712 2021 -1931 184 -41 328 -55 564 -55 225 1 392 18 560 57 l55 13 -68 13
c-248 44 -447 158 -653 374 -159 166 -281 374 -331 565 -46 174 -35 389 28
557 l19 50 82 1 c103 0 173 29 252 104 213 202 117 580 -186 729 -272 134
-540 101 -730 -91 -63 -64 -131 -176 -151 -248 -7 -23 -8 -23 -18 -7 -6 10
-21 50 -35 89 -109 323 12 679 299 870 l38 25 67 -67 c210 -210 540 -213 746
-6 104 105 156 230 156 379 0 99 -19 174 -74 292 -61 130 -115 207 -221 311
-287 284 -744 441 -1170 403z"/>
</g>
</svg>
